<?xml version="1.0" encoding="UTF-8" standalone="no"?>
<!DOCTYPE svg PUBLIC "-//W3C//DTD SVG 1.1//EN" "http://www.w3.org/Graphics/SVG/1.1/DTD/svg11.dtd">
<svg width="100%" height="100%" viewBox="0 0 1000 180" version="1.1" xmlns="http://www.w3.org/2000/svg" xmlns:xlink="http://www.w3.org/1999/xlink" xml:space="preserve" xmlns:serif="http://www.serif.com/" style="fill-rule:evenodd;clip-rule:evenodd;stroke-linejoin:round;stroke-miterlimit:2;">
    <g>
        <path d="M562.123,105.731C562.123,116.89 558.74,125.698 551.974,132.156C545.208,138.615 536.146,141.844 524.788,141.844C513.334,141.844 504.236,138.615 497.494,132.156C490.752,125.698 487.381,116.89 487.381,105.731C487.381,94.572 490.752,85.753 497.494,79.274C504.236,72.795 513.334,69.556 524.788,69.556C536.146,69.556 545.208,72.795 551.974,79.274C558.74,85.753 562.123,94.572 562.123,105.731ZM822.506,105.731C822.506,116.89 819.123,125.698 812.357,132.156C805.591,138.615 796.529,141.844 785.171,141.844C773.717,141.844 764.619,138.615 757.877,132.156C751.135,125.698 747.764,116.89 747.764,105.731C747.764,94.572 751.135,85.753 757.877,79.274C764.619,72.795 773.717,69.556 785.171,69.556C796.529,69.556 805.591,72.795 812.357,79.274C819.123,85.753 822.506,94.572 822.506,105.731ZM310.379,113.885C310.379,117.441 309.401,120.957 307.443,124.431C305.486,127.905 302.743,130.848 299.215,133.26C295.349,135.876 290.842,137.92 285.695,139.391C280.548,140.863 274.35,141.599 267.1,141.599C259.319,141.599 252.323,140.986 246.113,139.759C239.902,138.533 233.583,136.714 227.156,134.302L227.156,119.097L228.17,119.097C233.632,122.939 239.939,125.903 247.092,127.987C254.244,130.072 260.962,131.114 267.245,131.114C276.138,131.114 283.061,129.704 288.015,126.884C292.969,124.063 295.446,120.303 295.446,115.602C295.446,111.555 294.274,108.571 291.93,106.65C289.586,104.729 286.021,103.237 281.237,102.174C277.612,101.357 273.685,100.682 269.456,100.151C265.227,99.62 260.745,98.945 256.008,98.128C246.439,96.411 239.347,93.478 234.731,89.329C230.116,85.18 227.808,79.775 227.808,73.112C227.808,65.468 231.626,59.204 239.262,54.32C246.898,49.435 256.588,46.993 268.333,46.993C275.92,46.993 282.88,47.606 289.211,48.832C295.542,50.058 301.148,51.571 306.03,53.369L306.03,67.716L305.015,67.716C300.907,64.773 295.506,62.331 288.812,60.39C282.119,58.448 275.268,57.477 268.26,57.477C260.576,57.477 254.401,58.826 249.738,61.524C245.074,64.222 242.742,67.696 242.742,71.947C242.742,75.749 243.902,78.732 246.222,80.899C248.541,83.065 252.625,84.721 258.473,85.865C261.566,86.437 265.964,87.132 271.667,87.95C277.37,88.767 282.203,89.605 286.166,90.464C294.189,92.262 300.23,94.98 304.29,98.618C308.35,102.256 310.379,107.345 310.379,113.885ZM483.4,135.651C478.857,137.491 474.544,138.921 470.46,139.943C466.376,140.965 462.038,141.476 457.447,141.476C451.599,141.476 446.234,140.751 441.353,139.299C436.472,137.848 432.291,135.651 428.812,132.708C425.283,129.765 422.553,126.046 420.62,121.549C418.686,117.053 417.72,111.801 417.72,105.792C417.72,94.592 421.357,85.804 428.63,79.427C435.904,73.051 445.509,69.862 457.447,69.862C462.087,69.862 466.642,70.414 471.112,71.518C475.583,72.622 479.679,73.97 483.4,75.565L483.4,88.379L482.675,88.379C478.519,85.64 474.229,83.535 469.807,82.064C465.385,80.592 461.072,79.856 456.867,79.856C449.134,79.856 443.033,82.054 438.562,86.448C434.092,90.842 431.856,97.29 431.856,105.792C431.856,114.049 434.043,120.395 438.417,124.83C442.791,129.265 448.941,131.482 456.867,131.482C459.622,131.482 462.425,131.175 465.276,130.562C468.128,129.949 470.689,129.152 472.961,128.171C474.942,127.313 476.803,126.403 478.543,125.443C480.283,124.482 481.66,123.654 482.675,122.96L483.4,122.96L483.4,135.651ZM895.72,135.651C891.177,137.491 886.863,138.921 882.779,139.943C878.696,140.965 874.358,141.476 869.767,141.476C863.919,141.476 858.554,140.751 853.673,139.299C848.791,137.848 844.611,135.651 841.131,132.708C837.603,129.765 834.872,126.046 832.939,121.549C831.006,117.053 830.039,111.801 830.039,105.792C830.039,94.592 833.676,85.804 840.95,79.427C848.224,73.051 857.829,69.862 869.767,69.862C874.406,69.862 878.961,70.414 883.432,71.518C887.902,72.622 891.998,73.97 895.72,75.565L895.72,88.379L894.995,88.379C890.838,85.64 886.549,83.535 882.127,82.064C877.705,80.592 873.391,79.856 869.187,79.856C861.454,79.856 855.352,82.054 850.882,86.448C846.411,90.842 844.176,97.29 844.176,105.792C844.176,114.049 846.363,120.395 850.737,124.83C855.111,129.265 861.261,131.482 869.187,131.482C871.941,131.482 874.745,131.175 877.596,130.562C880.447,129.949 883.009,129.152 885.28,128.171C887.262,127.313 889.123,126.403 890.863,125.443C892.602,124.482 893.98,123.654 894.995,122.96L895.72,122.96L895.72,135.651ZM371.335,139.943L357.706,139.943L357.706,44.54L371.335,44.54L371.335,139.943ZM338.356,139.943L324.727,139.943L324.727,71.457L338.356,71.457L338.356,139.943ZM404.314,139.943L390.685,139.943L390.685,71.457L404.314,71.457L404.314,139.943ZM643.166,139.943L629.537,139.943L629.537,100.948C629.537,97.801 629.32,94.848 628.885,92.088C628.45,89.329 627.652,87.173 626.493,85.62C625.284,83.903 623.544,82.626 621.273,81.788C619.001,80.95 616.053,80.531 612.429,80.531C608.707,80.531 604.817,81.308 600.757,82.861C596.697,84.414 592.807,86.397 589.085,88.808L589.085,139.943L575.456,139.943L575.456,71.457L589.085,71.457L589.085,79.059C593.338,76.076 597.736,73.746 602.279,72.07C606.822,70.394 611.486,69.556 616.271,69.556C625.018,69.556 631.688,71.784 636.279,76.239C640.871,80.694 643.166,87.112 643.166,95.491L643.166,139.943ZM978.938,139.943L960.959,139.943L928.481,109.961L919.637,117.073L919.637,139.943L906.008,139.943L906.008,44.54L919.637,44.54L919.637,105.731L959.002,71.457L976.183,71.457L938.558,103.094L978.938,139.943ZM752.047,139.943L733.416,139.943L697.314,103.646L677.088,103.646L677.088,139.943L662.734,139.943L662.734,48.648L692.964,48.648C699.489,48.648 704.926,49.006 709.275,49.721C713.625,50.436 717.54,51.714 721.02,53.553C724.934,55.638 727.991,58.264 730.19,61.432C732.389,64.6 733.489,68.616 733.489,73.48C733.489,80.061 731.531,85.569 727.617,90.004C723.702,94.439 718.313,97.78 711.45,100.028L752.047,139.943ZM548.059,105.731C548.059,96.861 546.005,90.269 541.897,85.957C537.789,81.645 532.086,79.489 524.788,79.489C517.394,79.489 511.655,81.645 507.571,85.957C503.487,90.269 501.445,96.861 501.445,105.731C501.445,114.314 503.499,120.824 507.607,125.259C511.715,129.694 517.442,131.911 524.788,131.911C532.038,131.911 537.729,129.714 541.861,125.32C545.993,120.926 548.059,114.396 548.059,105.731ZM808.442,105.731C808.442,96.861 806.388,90.269 802.28,85.957C798.172,81.645 792.469,79.489 785.171,79.489C777.777,79.489 772.038,81.645 767.954,85.957C763.87,90.269 761.828,96.861 761.828,105.731C761.828,114.314 763.882,120.824 767.99,125.259C772.098,129.694 777.825,131.911 785.171,131.911C792.421,131.911 798.112,129.714 802.244,125.32C806.376,120.926 808.442,114.396 808.442,105.731ZM718.482,74.338C718.482,71.722 717.939,69.403 716.851,67.379C715.764,65.356 713.963,63.649 711.45,62.26C709.372,61.074 706.907,60.247 704.056,59.776C701.204,59.306 697.845,59.071 693.979,59.071L677.088,59.071L677.088,93.529L691.587,93.529C696.13,93.529 700.093,93.192 703.476,92.518C706.859,91.843 709.735,90.586 712.103,88.747C714.278,87.03 715.885,85.058 716.924,82.83C717.963,80.602 718.482,77.772 718.482,74.338ZM339.226,59.991L323.857,59.991L323.857,48.035L339.226,48.035L339.226,59.991ZM405.184,59.991L389.815,59.991L389.815,48.035L405.184,48.035L405.184,59.991Z" style="fill:rgb(35,31,32);"/>
        <g id="bot_greyblock" transform="matrix(207.085,0,0,-207.085,-1.43189,103.421)">
            <path d="M0.112,-0.288L0.904,-0.288L0.904,0.367L1,0.367L1,-0.368L0.112,-0.368L0.112,-0.288Z" style="fill:url(#_Linear1);"/>
        </g>
        <g id="top_blackblock" transform="matrix(5.43534,0,0,4.43153,-12.4369,-4.43731)">
            <path d="M2.288,35.95L2.288,1.001L40.132,1.001L40.132,13.336L35.557,13.336L35.557,13.338L35.555,13.338L35.558,35.951L2.288,35.95Z" style="fill:rgb(35,31,32);"/>
        </g>
        <path d="M86.962,91.834C84.12,93.451 80.891,94.744 77.274,95.713C73.075,96.836 68.02,97.398 62.107,97.398C55.76,97.398 50.054,96.93 44.988,95.993C39.923,95.057 34.768,93.668 29.525,91.826L29.525,80.212L30.353,80.212C34.808,83.147 39.952,85.41 45.786,87.002C51.621,88.595 57.1,89.391 62.225,89.391C69.478,89.391 75.125,88.314 79.166,86.159C83.206,84.005 85.227,81.133 85.227,77.543C85.227,74.452 84.271,72.173 82.359,70.706C80.447,69.239 77.54,68.099 73.637,67.287C70.681,66.663 67.478,66.148 64.028,65.742C60.579,65.336 56.923,64.821 53.06,64.197C45.254,62.885 39.469,60.645 35.705,57.477C31.94,54.308 30.058,50.179 30.058,45.091C30.058,39.253 33.172,34.468 39.4,30.737C45.629,27.007 53.533,25.141 63.112,25.141C69.301,25.141 74.977,25.61 80.141,26.546C85.306,27.483 89.878,28.638 93.86,30.012L93.86,40.97L93.032,40.97C89.681,38.722 85.276,36.856 79.816,35.374C74.356,33.891 68.769,33.149 63.053,33.149C56.785,33.149 51.749,34.179 47.945,36.24C44.141,38.3 42.239,40.954 42.239,44.201C42.239,47.104 43.185,49.383 45.077,51.038C46.969,52.692 50.3,53.957 55.07,54.831C57.593,55.268 61.18,55.799 65.832,56.423C70.483,57.047 74.425,57.687 77.658,58.343C84.202,59.717 89.129,61.793 92.441,64.571C94.276,66.112 95.603,67.993 96.421,70.215L111.377,70.215C116.646,70.215 121.037,70.488 124.55,71.035C128.063,71.581 131.225,72.556 134.035,73.961C137.197,75.554 139.665,77.559 141.441,79.979C143.217,82.398 144.105,85.466 144.105,89.181C144.105,94.207 142.524,98.414 139.363,101.801C136.201,105.188 131.849,107.741 126.307,109.458L159.094,139.943L144.047,139.943L114.89,112.221L98.554,112.221L98.554,139.943L86.962,139.943L86.962,91.834ZM131.986,89.836C131.986,87.838 131.547,86.067 130.668,84.521C129.79,82.976 128.336,81.672 126.307,80.611C124.628,79.706 122.637,79.073 120.335,78.714C118.032,78.355 115.319,78.176 112.196,78.176L98.554,78.176L98.554,104.494L110.264,104.494C113.933,104.494 117.134,104.236 119.866,103.721C122.598,103.206 124.921,102.246 126.833,100.841C128.59,99.53 129.888,98.024 130.727,96.322C131.566,94.621 131.986,92.459 131.986,89.836Z" style="fill:white;fill-rule:nonzero;"/>
        <g id="greenline" transform="matrix(5.92233,0,0,5.92233,178.603,163.227)">
            <path d="M0,-24.045L0.037,-24.045L138.695,-24.045L138.695,-22.935L1.235,-22.93L1.235,0L-28.234,0L-28.234,-1.41L0.004,-1.41L0,-24.045Z" style="fill:url(#_Linear2);"/>
        </g>
        <path d="M816.117,159.026C816.989,159.858 817.658,160.876 818.123,162.082C818.588,163.287 818.821,164.655 818.821,166.185C818.821,167.715 818.583,169.085 818.109,170.294C817.634,171.504 816.97,172.512 816.117,173.319C815.235,174.159 814.192,174.79 812.989,175.215C811.785,175.639 810.412,175.851 808.868,175.851C807.363,175.851 805.994,175.634 804.762,175.202C803.53,174.77 802.483,174.142 801.62,173.319C800.757,172.496 800.093,171.485 799.628,170.288C799.163,169.091 798.93,167.723 798.93,166.185C798.93,164.672 799.16,163.314 799.621,162.113C800.081,160.911 800.752,159.883 801.634,159.026C802.478,158.211 803.525,157.588 804.777,157.155C806.028,156.723 807.392,156.507 808.868,156.507C810.402,156.507 811.781,156.725 813.003,157.162C814.226,157.598 815.264,158.22 816.117,159.026ZM724.431,159.026C725.304,159.858 725.972,160.876 726.437,162.082C726.903,163.287 727.135,164.655 727.135,166.185C727.135,167.715 726.898,169.085 726.423,170.294C725.949,171.504 725.285,172.512 724.431,173.319C723.549,174.159 722.506,174.79 721.303,175.215C720.1,175.639 718.726,175.851 717.183,175.851C715.677,175.851 714.309,175.634 713.077,175.202C711.844,174.77 710.797,174.142 709.934,173.319C709.071,172.496 708.407,171.485 707.942,170.288C707.477,169.091 707.245,167.723 707.245,166.185C707.245,164.672 707.475,163.314 707.935,162.113C708.395,160.911 709.066,159.883 709.948,159.026C710.792,158.211 711.84,157.588 713.091,157.155C714.342,156.723 715.706,156.507 717.183,156.507C718.717,156.507 720.095,156.725 721.317,157.162C722.54,157.598 723.578,158.22 724.431,159.026ZM382.21,159.026C383.082,159.858 383.751,160.876 384.216,162.082C384.681,163.287 384.914,164.655 384.914,166.185C384.914,167.715 384.676,169.085 384.202,170.294C383.727,171.504 383.063,172.512 382.21,173.319C381.328,174.159 380.285,174.79 379.082,175.215C377.878,175.639 376.505,175.851 374.961,175.851C373.456,175.851 372.087,175.634 370.855,175.202C369.623,174.77 368.576,174.142 367.713,173.319C366.85,172.496 366.186,171.485 365.721,170.288C365.256,169.091 365.023,167.723 365.023,166.185C365.023,164.672 365.253,163.314 365.714,162.113C366.174,160.911 366.845,159.883 367.727,159.026C368.571,158.211 369.618,157.588 370.87,157.155C372.121,156.723 373.485,156.507 374.961,156.507C376.495,156.507 377.874,156.725 379.096,157.162C380.319,157.598 381.357,158.22 382.21,159.026ZM764.169,168.006C764.169,169.353 763.999,170.527 763.658,171.529C763.318,172.531 762.759,173.365 761.983,174.03C761.245,174.662 760.382,175.123 759.394,175.414C758.406,175.705 757.256,175.851 755.942,175.851C754.6,175.851 753.43,175.697 752.433,175.389C751.436,175.081 750.597,174.628 749.916,174.03C749.14,173.348 748.581,172.525 748.241,171.56C747.9,170.596 747.73,169.411 747.73,168.006L747.73,156.893L750.578,156.893L750.578,168.131C750.578,169.137 750.657,169.931 750.815,170.513C750.973,171.095 751.239,171.623 751.613,172.097C752.035,172.637 752.608,173.044 753.332,173.319C754.056,173.593 754.926,173.73 755.942,173.73C756.968,173.73 757.841,173.595 758.56,173.325C759.279,173.055 759.854,172.645 760.286,172.097C760.66,171.623 760.926,171.08 761.084,170.469C761.242,169.858 761.321,169.099 761.321,168.193L761.321,156.893L764.169,156.893L764.169,168.006ZM538.572,164.127L538.572,165.324C538.572,166.123 538.452,167.021 538.212,168.018C537.972,169.016 537.565,169.968 536.99,170.874L542.426,175.464L538.888,175.464L535.595,172.67C534.492,173.851 533.365,174.676 532.215,175.146C531.064,175.616 529.88,175.851 528.662,175.851C526.668,175.851 525.012,175.345 523.693,174.335C522.375,173.325 521.716,172.001 521.716,170.363C521.716,169.598 521.841,168.937 522.09,168.38C522.339,167.823 522.632,167.341 522.967,166.933C523.303,166.542 523.72,166.175 524.218,165.829C524.717,165.484 525.22,165.183 525.729,164.925C524.674,164.327 523.914,163.724 523.449,163.117C522.984,162.51 522.751,161.745 522.751,160.822C522.751,160.265 522.878,159.735 523.133,159.232C523.387,158.729 523.768,158.269 524.276,157.854C524.755,157.455 525.381,157.13 526.153,156.881C526.925,156.632 527.776,156.507 528.706,156.507C530.364,156.507 531.707,156.871 532.733,157.598C533.759,158.326 534.271,159.246 534.271,160.361C534.271,160.726 534.214,161.14 534.099,161.602C533.984,162.063 533.787,162.477 533.509,162.842C533.202,163.25 532.766,163.641 532.2,164.015C531.635,164.389 530.901,164.709 530,164.975L535.336,169.49C535.47,169.157 535.571,168.792 535.638,168.392C535.705,167.993 535.743,167.578 535.753,167.145C535.772,166.68 535.779,166.16 535.774,165.586C535.77,165.013 535.767,164.526 535.767,164.127L538.572,164.127ZM607.649,174.092C606.479,174.558 605.201,174.963 603.816,175.308C602.431,175.653 601.091,175.826 599.796,175.826C598.128,175.826 596.599,175.626 595.208,175.227C593.818,174.828 592.634,174.229 591.656,173.431C590.668,172.625 589.906,171.616 589.369,170.407C588.832,169.197 588.564,167.781 588.564,166.16C588.564,163.192 589.563,160.849 591.562,159.132C593.562,157.415 596.306,156.557 599.796,156.557C601.014,156.557 602.258,156.683 603.528,156.937C604.799,157.191 606.167,157.621 607.634,158.228L607.634,161.159L607.376,161.159C607.078,160.959 606.647,160.697 606.081,160.373C605.515,160.049 604.959,159.779 604.413,159.562C603.751,159.305 603.001,159.091 602.162,158.92C601.323,158.75 600.371,158.664 599.307,158.664C596.91,158.664 595.014,159.332 593.619,160.666C592.224,162.001 591.526,163.807 591.526,166.085C591.526,168.488 592.255,170.357 593.713,171.691C595.17,173.026 597.155,173.693 599.667,173.693C600.587,173.693 601.505,173.614 602.421,173.456C603.337,173.298 604.14,173.094 604.83,172.845L604.83,168.293L599.091,168.293L599.091,166.123L607.649,166.123L607.649,174.092ZM703.894,170.163C703.894,170.887 703.699,171.602 703.311,172.309C702.923,173.015 702.379,173.614 701.679,174.105C700.912,174.637 700.018,175.052 698.997,175.352C697.975,175.651 696.746,175.801 695.308,175.801C693.764,175.801 692.376,175.676 691.144,175.427C689.912,175.177 688.658,174.807 687.383,174.317L687.383,171.224L687.584,171.224C688.668,172.005 689.919,172.608 691.338,173.032C692.757,173.456 694.09,173.668 695.336,173.668C697.1,173.668 698.474,173.381 699.457,172.807C700.44,172.234 700.931,171.469 700.931,170.513C700.931,169.689 700.698,169.083 700.233,168.692C699.768,168.301 699.061,167.997 698.112,167.781C697.393,167.615 696.614,167.478 695.775,167.37C694.936,167.262 694.047,167.124 693.107,166.958C691.209,166.609 689.802,166.012 688.886,165.168C687.97,164.325 687.512,163.225 687.512,161.87C687.512,160.315 688.27,159.041 689.785,158.047C691.3,157.053 693.222,156.557 695.552,156.557C697.057,156.557 698.438,156.681 699.694,156.931C700.95,157.18 702.062,157.488 703.031,157.854L703.031,160.772L702.829,160.772C702.014,160.174 700.943,159.677 699.615,159.282C698.287,158.887 696.928,158.689 695.538,158.689C694.013,158.689 692.788,158.964 691.863,159.513C690.938,160.061 690.475,160.768 690.475,161.633C690.475,162.406 690.705,163.013 691.165,163.454C691.626,163.894 692.436,164.231 693.596,164.464C694.21,164.58 695.082,164.722 696.214,164.888C697.345,165.054 698.304,165.225 699.09,165.399C700.682,165.765 701.88,166.318 702.686,167.058C703.491,167.798 703.894,168.833 703.894,170.163ZM361.672,170.163C361.672,170.887 361.478,171.602 361.09,172.309C360.701,173.015 360.157,173.614 359.457,174.105C358.69,174.637 357.796,175.052 356.775,175.352C355.754,175.651 354.524,175.801 353.086,175.801C351.542,175.801 350.155,175.676 348.923,175.427C347.69,175.177 346.437,174.807 345.162,174.317L345.162,171.224L345.363,171.224C346.446,172.005 347.698,172.608 349.117,173.032C350.536,173.456 351.868,173.668 353.115,173.668C354.879,173.668 356.253,173.381 357.235,172.807C358.218,172.234 358.71,171.469 358.71,170.513C358.71,169.689 358.477,169.083 358.012,168.692C357.547,168.301 356.84,167.997 355.891,167.781C355.172,167.615 354.393,167.478 353.554,167.37C352.715,167.262 351.825,167.124 350.886,166.958C348.987,166.609 347.58,166.012 346.665,165.168C345.749,164.325 345.291,163.225 345.291,161.87C345.291,160.315 346.049,159.041 347.563,158.047C349.078,157.053 351.001,156.557 353.331,156.557C354.836,156.557 356.217,156.681 357.473,156.931C358.729,157.18 359.841,157.488 360.809,157.854L360.809,160.772L360.608,160.772C359.793,160.174 358.722,159.677 357.394,159.282C356.066,158.887 354.707,158.689 353.316,158.689C351.792,158.689 350.567,158.964 349.642,159.513C348.716,160.061 348.254,160.768 348.254,161.633C348.254,162.406 348.484,163.013 348.944,163.454C349.404,163.894 350.215,164.231 351.375,164.464C351.988,164.58 352.861,164.722 353.992,164.888C355.124,165.054 356.082,165.225 356.869,165.399C358.46,165.765 359.659,166.318 360.464,167.058C361.27,167.798 361.672,168.833 361.672,170.163ZM860.931,170.163C860.931,170.887 860.737,171.602 860.349,172.309C859.961,173.015 859.417,173.614 858.717,174.105C857.95,174.637 857.055,175.052 856.034,175.352C855.013,175.651 853.784,175.801 852.345,175.801C850.802,175.801 849.414,175.676 848.182,175.427C846.95,175.177 845.696,174.807 844.421,174.317L844.421,171.224L844.622,171.224C845.706,172.005 846.957,172.608 848.376,173.032C849.795,173.456 851.128,173.668 852.374,173.668C854.138,173.668 855.512,173.381 856.495,172.807C857.477,172.234 857.969,171.469 857.969,170.513C857.969,169.689 857.736,169.083 857.271,168.692C856.806,168.301 856.099,167.997 855.15,167.781C854.431,167.615 853.652,167.478 852.813,167.37C851.974,167.262 851.084,167.124 850.145,166.958C848.246,166.609 846.839,166.012 845.924,165.168C845.008,164.325 844.55,163.225 844.55,161.87C844.55,160.315 845.308,159.041 846.823,158.047C848.338,157.053 850.26,156.557 852.59,156.557C854.095,156.557 855.476,156.681 856.732,156.931C857.988,157.18 859.1,157.488 860.068,157.854L860.068,160.772L859.867,160.772C859.052,160.174 857.981,159.677 856.653,159.282C855.325,158.887 853.966,158.689 852.575,158.689C851.051,158.689 849.826,158.964 848.901,159.513C847.976,160.061 847.513,160.768 847.513,161.633C847.513,162.406 847.743,163.013 848.203,163.454C848.664,163.894 849.474,164.231 850.634,164.464C851.247,164.58 852.12,164.722 853.251,164.888C854.383,165.054 855.342,165.225 856.128,165.399C857.719,165.765 858.918,166.318 859.723,167.058C860.529,167.798 860.931,168.833 860.931,170.163ZM449.863,156.893L444.297,175.464L441.09,175.464L436.588,160.049L432.188,175.464L429.052,175.464L423.386,156.893L426.305,156.893L430.807,172.334L435.237,156.893L438.127,156.893L442.6,172.483L447.073,156.893L449.863,156.893ZM491.197,175.464L487.501,175.464L480.339,168.081L476.326,168.081L476.326,175.464L473.478,175.464L473.478,156.893L479.476,156.893C480.77,156.893 481.849,156.966 482.712,157.112C483.575,157.257 484.351,157.517 485.042,157.891C485.818,158.315 486.425,158.849 486.861,159.494C487.297,160.138 487.515,160.955 487.515,161.945C487.515,163.283 487.127,164.404 486.35,165.306C485.574,166.208 484.505,166.887 483.143,167.345L491.197,175.464ZM572.787,166.197C572.787,167.885 572.362,169.415 571.514,170.787C570.665,172.159 569.536,173.223 568.127,173.98C567.149,174.504 566.058,174.882 564.855,175.115C563.652,175.348 562.067,175.464 560.102,175.464L554.694,175.464L554.694,156.893L560.044,156.893C562.134,156.893 563.795,157.024 565.028,157.286C566.26,157.548 567.302,157.908 568.156,158.365C569.613,159.155 570.749,160.207 571.564,161.52C572.379,162.834 572.787,164.393 572.787,166.197ZM422.063,159.088L414.411,159.088L414.411,175.464L411.564,175.464L411.564,159.088L403.912,159.088L403.912,156.893L422.063,156.893L422.063,159.088ZM640.296,159.088L632.645,159.088L632.645,175.464L629.797,175.464L629.797,159.088L622.146,159.088L622.146,156.893L640.296,156.893L640.296,159.088ZM784.879,159.088L777.228,159.088L777.228,175.464L774.38,175.464L774.38,159.088L766.729,159.088L766.729,156.893L784.879,156.893L784.879,159.088ZM658.331,175.464L655.297,175.464L653.197,170.288L643.935,170.288L641.835,175.464L638.944,175.464L646.739,156.893L650.536,156.893L658.331,175.464ZM470.228,175.464L467.194,175.464L465.094,170.288L455.832,170.288L453.732,175.464L450.841,175.464L458.636,156.893L462.433,156.893L470.228,175.464ZM584.94,175.464L576.483,175.464L576.483,173.568L579.287,173.568L579.287,158.789L576.483,158.789L576.483,156.893L584.94,156.893L584.94,158.789L582.135,158.789L582.135,173.568L584.94,173.568L584.94,175.464ZM620.176,175.464L611.719,175.464L611.719,173.568L614.523,173.568L614.523,158.789L611.719,158.789L611.719,156.893L620.176,156.893L620.176,158.789L617.371,158.789L617.371,173.568L620.176,173.568L620.176,175.464ZM795.306,175.464L786.849,175.464L786.849,173.568L789.654,173.568L789.654,158.789L786.849,158.789L786.849,156.893L795.306,156.893L795.306,158.789L792.502,158.789L792.502,173.568L795.306,173.568L795.306,175.464ZM675.129,175.464L661.582,175.464L661.582,156.893L664.429,156.893L664.429,173.269L675.129,173.269L675.129,175.464ZM745.199,175.464L731.651,175.464L731.651,156.893L734.499,156.893L734.499,173.269L745.199,173.269L745.199,175.464ZM403.107,159.088L392.277,159.088L392.277,164.327L401.583,164.327L401.583,166.522L392.277,166.522L392.277,175.464L389.43,175.464L389.43,156.893L403.107,156.893L403.107,159.088ZM508.067,175.464L493.959,175.464L493.959,156.893L508.067,156.893L508.067,159.088L496.806,159.088L496.806,164.177L508.067,164.177L508.067,166.372L496.806,166.372L496.806,173.269L508.067,173.269L508.067,175.464ZM839.675,175.464L836.151,175.464L825.997,158.851L825.997,175.464L823.337,175.464L823.337,156.893L827.752,156.893L837.014,172.059L837.014,156.893L839.675,156.893L839.675,175.464ZM534.243,171.535L527.368,165.723C527.071,165.848 526.774,166.012 526.476,166.216C526.179,166.42 525.882,166.696 525.585,167.045C525.316,167.37 525.096,167.761 524.923,168.218C524.751,168.675 524.664,169.191 524.664,169.764C524.664,170.978 525.074,171.957 525.894,172.701C526.714,173.446 527.876,173.818 529.382,173.818C530.273,173.818 531.158,173.629 532.035,173.25C532.912,172.872 533.648,172.3 534.243,171.535ZM381.951,166.185C381.951,163.774 381.328,161.913 380.081,160.604C378.835,159.294 377.133,158.639 374.976,158.639C372.799,158.639 371.09,159.294 369.848,160.604C368.607,161.913 367.986,163.774 367.986,166.185C367.986,168.621 368.619,170.486 369.884,171.779C371.15,173.071 372.847,173.718 374.976,173.718C377.104,173.718 378.799,173.071 380.06,171.779C381.321,170.486 381.951,168.621 381.951,166.185ZM724.172,166.185C724.172,163.774 723.549,161.913 722.303,160.604C721.056,159.294 719.354,158.639 717.197,158.639C715.021,158.639 713.311,159.294 712.07,160.604C710.828,161.913 710.207,163.774 710.207,166.185C710.207,168.621 710.84,170.486 712.106,171.779C713.371,173.071 715.068,173.718 717.197,173.718C719.326,173.718 721.02,173.071 722.281,171.779C723.542,170.486 724.172,168.621 724.172,166.185ZM815.858,166.185C815.858,163.774 815.235,161.913 813.988,160.604C812.742,159.294 811.04,158.639 808.883,158.639C806.706,158.639 804.997,159.294 803.756,160.604C802.514,161.913 801.893,163.774 801.893,166.185C801.893,168.621 802.526,170.486 803.791,171.779C805.057,173.071 806.754,173.718 808.883,173.718C811.011,173.718 812.706,173.071 813.967,171.779C815.228,170.486 815.858,168.621 815.858,166.185ZM569.81,166.16C569.81,164.705 569.517,163.479 568.932,162.481C568.347,161.483 567.475,160.697 566.315,160.124C565.471,159.708 564.574,159.419 563.625,159.257C562.676,159.095 561.54,159.014 560.217,159.014L557.542,159.014L557.542,173.344L560.217,173.344C561.588,173.344 562.784,173.256 563.805,173.082C564.826,172.907 565.763,172.583 566.617,172.109C567.681,171.519 568.479,170.741 569.011,169.777C569.544,168.812 569.81,167.607 569.81,166.16ZM464.216,168.168L460.463,159.051L456.695,168.168L464.216,168.168ZM652.32,168.168L648.566,159.051L644.798,168.168L652.32,168.168ZM484.538,162.119C484.538,161.587 484.43,161.115 484.215,160.704C483.999,160.292 483.642,159.945 483.143,159.662C482.731,159.421 482.242,159.253 481.676,159.157C481.111,159.061 480.444,159.014 479.677,159.014L476.326,159.014L476.326,166.023L479.203,166.023C480.104,166.023 480.89,165.954 481.561,165.817C482.232,165.68 482.803,165.424 483.273,165.05C483.704,164.701 484.023,164.3 484.229,163.846C484.435,163.393 484.538,162.818 484.538,162.119ZM531.453,160.61C531.453,159.82 531.182,159.199 530.64,158.745C530.098,158.292 529.406,158.066 528.562,158.066C527.68,158.066 526.961,158.321 526.404,158.833C525.848,159.344 525.57,159.97 525.57,160.71C525.57,161.333 525.76,161.886 526.138,162.369C526.517,162.851 527.335,163.42 528.591,164.077C529.53,163.786 530.242,163.36 530.726,162.799C531.21,162.238 531.453,161.508 531.453,160.61Z" style="fill:rgb(112,109,109);"/>
    </g>
    <defs>
        <linearGradient id="_Linear1" x1="0" y1="0" x2="1" y2="0" gradientUnits="userSpaceOnUse" gradientTransform="matrix(1,0,0,-1,0,-4.64727e-05)"><stop offset="0" style="stop-color:rgb(109,110,113);stop-opacity:1"/><stop offset="1" style="stop-color:rgb(35,31,32);stop-opacity:1"/></linearGradient>
        <linearGradient id="_Linear2" x1="0" y1="0" x2="1" y2="0" gradientUnits="userSpaceOnUse" gradientTransform="matrix(166.929,0,0,166.929,-28.234,-12.0225)"><stop offset="0" style="stop-color:rgb(105,149,41);stop-opacity:1"/><stop offset="0.09" style="stop-color:rgb(105,149,41);stop-opacity:1"/><stop offset="0.18" style="stop-color:rgb(3,157,217);stop-opacity:1"/><stop offset="0.45" style="stop-color:rgb(51,204,177);stop-opacity:1"/><stop offset="0.54" style="stop-color:rgb(148,242,13);stop-opacity:1"/><stop offset="0.86" style="stop-color:rgb(152,203,79);stop-opacity:1"/><stop offset="0.93" style="stop-color:rgb(182,242,13);stop-opacity:1"/><stop offset="1" style="stop-color:rgb(152,203,79);stop-opacity:1"/></linearGradient>
    </defs>
</svg>
