<?xml version="1.0" encoding="UTF-8" standalone="no"?>
<!DOCTYPE svg PUBLIC "-//W3C//DTD SVG 1.1//EN" "http://www.w3.org/Graphics/SVG/1.1/DTD/svg11.dtd">
<svg width="100%" height="100%" viewBox="0 0 282 234" version="1.1" xmlns="http://www.w3.org/2000/svg" xmlns:xlink="http://www.w3.org/1999/xlink" xml:space="preserve" xmlns:serif="http://www.serif.com/" style="fill-rule:evenodd;clip-rule:evenodd;stroke-linecap:round;stroke-linejoin:round;stroke-miterlimit:1.5;">
    <g transform="matrix(1,0,0,1,-13.5621,-17.7383)">
        <g transform="matrix(1,0,0,1,2,1)">
            <g transform="matrix(2.40755,0,0,2.40755,-200.411,-836.036)">
                <g transform="matrix(0.399472,0,0,0.556935,10.6148,207.992)">
                    <rect x="325.284" y="396.686" width="35.667" height="15"/>
                </g>
                <g transform="matrix(0.464692,0,0,0.450791,-11.8408,249.399)">
                    <path d="M380.618,418.852C380.618,416.553 378.807,414.686 376.576,414.686L309.993,414.686C307.762,414.686 305.951,416.553 305.951,418.852L305.951,427.186C305.951,429.485 307.762,431.352 309.993,431.352L376.576,431.352C378.807,431.352 380.618,429.485 380.618,427.186L380.618,418.852Z"/>
                </g>
                <g transform="matrix(2.902e-17,0.464692,-0.464692,2.902e-17,275.845,208.566)">
                    <path d="M345.751,242.011L360.626,271.761L330.876,271.761L345.751,242.011Z"/>
                </g>
                <g transform="matrix(0.699088,0,0,0.699088,-21.9104,182.432)">
                    <path d="M193.001,352.741L193.001,339.447L185.45,339.447C184.702,339.447 184.094,338.839 184.094,338.091L184.094,305.886L175.232,305.886L175.232,348.276C175.232,350.74 177.232,352.741 179.696,352.741L193.001,352.741ZM195.834,339.447L195.834,352.741L305.482,352.741C307.946,352.741 309.946,350.74 309.946,348.276L309.946,303.22L305.404,305.546L301.084,307.551L301.084,338.091C301.084,338.839 300.476,339.447 299.728,339.447L195.834,339.447ZM175.232,303.886L184.094,303.886L184.094,273.002C184.094,272.254 184.702,271.646 185.45,271.646L255.274,271.646L255.274,263.448L179.696,263.448C177.232,263.448 175.232,265.448 175.232,267.913L175.232,303.886Z"/>
                </g>
            </g>
            <g transform="matrix(2.40755,0,0,2.40755,-200.411,-836.036)">
                <g transform="matrix(0.363041,0,0,0.363041,24.3131,284.154)">
                    <circle cx="339.284" cy="386.686" r="5.333" style="fill:white;"/>
                </g>
                <g transform="matrix(0.212379,0,0,0.212379,75.4303,342.413)">
                    <circle cx="339.284" cy="386.686" r="5.333" style="fill:rgb(152,203,79);"/>
                </g>
            </g>
            <g transform="matrix(2.40755,0,0,2.40755,-200.411,-836.036)">
                <g transform="matrix(0.403032,0,0,0.429841,-8.39405,246.288)">
                    <path d="M303.284,353.42C303.284,350.439 300.703,348.019 297.524,348.019L245.044,348.019C241.865,348.019 239.284,350.439 239.284,353.42L239.284,446.618C239.284,449.599 241.865,452.019 245.044,452.019L297.524,452.019C300.703,452.019 303.284,449.599 303.284,446.618L303.284,353.42Z" style="fill:rgb(72,60,60);"/>
                </g>
                <g transform="matrix(0.464692,0,0,0.511161,-14.2786,227.328)">
                    <rect x="224.618" y="338.019" width="46.667" height="68" style="fill:white;"/>
                </g>
                <g transform="matrix(0.336548,0,0,0.451354,17.8876,249.263)">
                    <path d="M254.951,417.519C254.951,415.955 253.248,414.686 251.151,414.686L242.418,414.686C240.32,414.686 238.618,415.955 238.618,417.519C238.618,419.083 240.32,420.352 242.418,420.352L251.151,420.352C253.248,420.352 254.951,419.083 254.951,417.519Z" style="fill:white;"/>
                </g>
                <g transform="matrix(0.322703,0,0,0.322703,22.098,291.081)">
                    <circle cx="225.551" cy="330.686" r="1.8" style="fill:white;"/>
                </g>
                <g transform="matrix(0.464692,0,0,0.464692,-14.6968,243.918)">
                    <path d="M256.751,331.286C256.751,331.175 256.661,331.086 256.551,331.086L241.151,331.086C241.041,331.086 240.951,331.175 240.951,331.286L240.951,331.686C240.951,331.796 241.041,331.886 241.151,331.886L256.551,331.886C256.661,331.886 256.751,331.796 256.751,331.686L256.751,331.286Z" style="fill:white;"/>
                </g>
                <g transform="matrix(0.26984,0,0,0.384265,30.5406,271.645)">
                    <path d="M250.834,343.136C250.834,342.86 250.515,342.636 250.122,342.636L231.046,342.636C230.653,342.636 230.334,342.86 230.334,343.136L230.334,344.136C230.334,344.412 230.653,344.636 231.046,344.636L250.122,344.636C250.515,344.636 250.834,344.412 250.834,344.136L250.834,343.136Z" style="fill:rgb(105,149,41);"/>
                </g>
                <g transform="matrix(0.804711,0,0,0.384265,-92.6585,274.153)">
                    <path d="M250.834,343.136C250.834,342.86 250.727,342.636 250.596,342.636L230.573,342.636C230.441,342.636 230.334,342.86 230.334,343.136L230.334,344.136C230.334,344.412 230.441,344.636 230.573,344.636L250.596,344.636C250.727,344.636 250.834,344.412 250.834,344.136L250.834,343.136Z" style="fill:rgb(105,149,41);"/>
                </g>
                <g transform="matrix(0.668703,0,0,0.384265,-61.3313,276.662)">
                    <path d="M250.834,343.136C250.834,342.86 250.706,342.636 250.547,342.636L230.622,342.636C230.463,342.636 230.334,342.86 230.334,343.136L230.334,344.136C230.334,344.412 230.463,344.636 230.622,344.636L250.547,344.636C250.706,344.636 250.834,344.412 250.834,344.136L250.834,343.136Z" style="fill:rgb(105,149,41);"/>
                </g>
                <g transform="matrix(0.668703,0,0,0.384265,-61.3313,296.731)">
                    <path d="M250.834,343.136C250.834,342.86 250.706,342.636 250.547,342.636L230.622,342.636C230.463,342.636 230.334,342.86 230.334,343.136L230.334,344.136C230.334,344.412 230.463,344.636 230.622,344.636L250.547,344.636C250.706,344.636 250.834,344.412 250.834,344.136L250.834,343.136Z" style="fill:rgb(105,149,41);"/>
                </g>
                <g transform="matrix(0.559206,0,0,0.384265,-36.1103,279.171)">
                    <path d="M250.834,343.136C250.834,342.86 250.68,342.636 250.491,342.636L230.678,342.636C230.488,342.636 230.334,342.86 230.334,343.136L230.334,344.136C230.334,344.412 230.488,344.636 230.678,344.636L250.491,344.636C250.68,344.636 250.834,344.412 250.834,344.136L250.834,343.136Z" style="fill:rgb(105,149,41);"/>
                </g>
                <g transform="matrix(0.804711,0,0,0.384265,-92.6585,284.188)">
                    <path d="M250.834,343.136C250.834,342.86 250.727,342.636 250.596,342.636L230.573,342.636C230.441,342.636 230.334,342.86 230.334,343.136L230.334,344.136C230.334,344.412 230.441,344.636 230.573,344.636L250.596,344.636C250.727,344.636 250.834,344.412 250.834,344.136L250.834,343.136Z" style="fill:rgb(105,149,41);"/>
                </g>
                <g transform="matrix(0.337544,0,0,0.384265,14.9461,286.697)">
                    <path d="M250.834,343.136C250.834,342.86 250.579,342.636 250.265,342.636L230.904,342.636C230.589,342.636 230.334,342.86 230.334,343.136L230.334,344.136C230.334,344.412 230.589,344.636 230.904,344.636L250.265,344.636C250.579,344.636 250.834,344.412 250.834,344.136L250.834,343.136Z" style="fill:rgb(105,149,41);"/>
                </g>
                <g transform="matrix(0.559206,0,0,0.384265,-36.1103,294.223)">
                    <path d="M250.834,343.136C250.834,342.86 250.68,342.636 250.491,342.636L230.678,342.636C230.488,342.636 230.334,342.86 230.334,343.136L230.334,344.136C230.334,344.412 230.488,344.636 230.678,344.636L250.491,344.636C250.68,344.636 250.834,344.412 250.834,344.136L250.834,343.136Z" style="fill:rgb(105,149,41);"/>
                </g>
                <g transform="matrix(0.588732,0,0,0.384265,-42.9112,289.205)">
                    <path d="M250.834,343.136C250.834,342.86 250.688,342.636 250.508,342.636L230.661,342.636C230.481,342.636 230.334,342.86 230.334,343.136L230.334,344.136C230.334,344.412 230.481,344.636 230.661,344.636L250.508,344.636C250.688,344.636 250.834,344.412 250.834,344.136L250.834,343.136Z" style="fill:rgb(105,149,41);"/>
                </g>
                <g transform="matrix(0.332968,0,0,0.384265,16,299.24)">
                    <path d="M250.834,343.136C250.834,342.86 250.576,342.636 250.257,342.636L230.911,342.636C230.593,342.636 230.334,342.86 230.334,343.136L230.334,344.136C230.334,344.412 230.593,344.636 230.911,344.636L250.257,344.636C250.576,344.636 250.834,344.412 250.834,344.136L250.834,343.136Z" style="fill:rgb(105,149,41);"/>
                </g>
            </g>
            <g transform="matrix(1.5212,0,0,0.780684,-367.903,-150.639)">
                <path d="M332.334,349.261C332.334,339.395 328.224,331.386 323.161,331.386L310.508,331.386C305.445,331.386 301.334,339.395 301.334,349.261C301.334,359.126 305.445,367.136 310.508,367.136L323.161,367.136C328.224,367.136 332.334,359.126 332.334,349.261Z" style="fill:rgb(105,149,41);"/>
            </g>
            <g transform="matrix(1.14062,0,0,1.15487,-238.569,-277.287)">
                <path d="M289.334,341.386L296.084,355.136L282.584,355.136L289.334,341.386Z" style="fill:rgb(105,149,41);"/>
            </g>
            <g transform="matrix(1.14062,0,0,1.15487,-193.336,-277.287)">
                <path d="M289.334,341.386L296.084,355.136L282.584,355.136L289.334,341.386Z" style="fill:rgb(105,149,41);"/>
            </g>
            <g transform="matrix(0.962395,0,0,0.962395,-168.718,-195.457)">
                <circle cx="293.834" cy="296.886" r="14.875" style="fill:rgb(105,149,41);"/>
            </g>
            <g transform="matrix(1.70349,0,0,0.874235,-381.687,-154.885)">
                <path d="M332.334,349.261C332.334,339.395 328.224,331.386 323.161,331.386L310.508,331.386C305.445,331.386 301.334,339.395 301.334,349.261C301.334,359.126 305.445,367.136 310.508,367.136L323.161,367.136C328.224,367.136 332.334,359.126 332.334,349.261Z" style="fill:rgb(152,203,79);"/>
            </g>
            <g transform="matrix(1.2773,0,0,1.29327,-236.855,-296.71)">
                <path d="M289.334,341.386L296.084,355.136L282.584,355.136L289.334,341.386Z" style="fill:rgb(152,203,79);"/>
            </g>
            <g transform="matrix(1.2773,0,0,1.29327,-186.202,-296.71)">
                <path d="M289.334,341.386L296.084,355.136L282.584,355.136L289.334,341.386Z" style="fill:rgb(152,203,79);"/>
            </g>
            <g transform="matrix(1.07772,0,0,1.07772,-158.633,-205.074)">
                <circle cx="293.834" cy="296.886" r="14.875" style="fill:rgb(152,203,79);"/>
            </g>
            <g>
                <g transform="matrix(1.74606,0,0,1.74606,-247.33,-403.104)">
                    <circle cx="279.351" cy="266.819" r="24.5" style="fill:white;stroke:rgb(105,149,41);stroke-width:3.74px;"/>
                </g>
                <g transform="matrix(108.24,0,0,64.5324,225.319,84.0163)">
                    <path d="M0.047,-0.024C0.06,-0.028 0.069,-0.031 0.074,-0.034C0.08,-0.037 0.084,-0.041 0.088,-0.046C0.092,-0.052 0.095,-0.06 0.097,-0.07C0.099,-0.081 0.1,-0.098 0.1,-0.121L0.1,-0.333C0.1,-0.354 0.1,-0.371 0.099,-0.384C0.098,-0.396 0.096,-0.407 0.092,-0.414C0.088,-0.422 0.082,-0.428 0.074,-0.431C0.066,-0.435 0.055,-0.438 0.041,-0.441L0.041,-0.467L0.154,-0.471L0.184,-0.471L0.184,-0.122C0.184,-0.094 0.185,-0.075 0.188,-0.064C0.191,-0.053 0.196,-0.045 0.203,-0.039C0.21,-0.033 0.222,-0.028 0.239,-0.024L0.239,-0L0.047,-0L0.047,-0.024Z" style="fill:rgb(51,204,177);fill-rule:nonzero;"/>
                </g>
                <g transform="matrix(1.68309,0,0,1.68309,-253.162,-396.821)">
                    <rect x="290.684" y="260.594" width="5.444" height="3.222" style="fill:rgb(3,157,217);"/>
                </g>
            </g>
            <g transform="matrix(2.40755,0,0,2.40755,-200.411,-836.036)">
                <g transform="matrix(0.130783,0,0,0.348484,90.007,411.526)">
                    <rect x="172.919" y="111.112" width="495" height="3" style="fill:rgb(51,204,177);"/>
                </g>
                <g transform="matrix(-5.71324e-19,0.024369,-0.348484,1.50204e-17,216.08,434.917)">
                    <rect x="172.919" y="111.112" width="495" height="3" style="fill:rgb(51,204,177);"/>
                </g>
                <g transform="matrix(-0.05818,5.0615e-18,-2.75927e-17,-0.348484,215.174,478.897)">
                    <rect x="172.919" y="111.112" width="495" height="3" style="fill:rgb(51,204,177);"/>
                </g>
            </g>
        </g>
    </g>
</svg>
