<?xml version="1.0" encoding="UTF-8" standalone="no"?>
<!DOCTYPE svg PUBLIC "-//W3C//DTD SVG 1.1//EN" "http://www.w3.org/Graphics/SVG/1.1/DTD/svg11.dtd">
<svg width="100%" height="100%" viewBox="0 0 280 234" version="1.1" xmlns="http://www.w3.org/2000/svg" xmlns:xlink="http://www.w3.org/1999/xlink" xml:space="preserve" xmlns:serif="http://www.serif.com/" style="fill-rule:evenodd;clip-rule:evenodd;stroke-linecap:round;stroke-linejoin:round;stroke-miterlimit:1.5;">
    <g transform="matrix(1,0,0,1,-43.7689,-302.745)">
        <g id="GROUP:-Solutions" serif:id="GROUP: Solutions" transform="matrix(2.40234,0,0,2.40234,-826.459,-504.443)">
            <g transform="matrix(0.399472,0,0,0.556935,284.811,189.992)">
                <rect x="325.284" y="396.686" width="35.667" height="15"/>
            </g>
            <g transform="matrix(0.464692,0,0,0.450791,262.355,231.399)">
                <path d="M380.618,418.852C380.618,416.553 378.807,414.686 376.576,414.686L309.993,414.686C307.762,414.686 305.951,416.553 305.951,418.852L305.951,427.186C305.951,429.485 307.762,431.352 309.993,431.352L376.576,431.352C378.807,431.352 380.618,429.485 380.618,427.186L380.618,418.852Z"/>
            </g>
            <g transform="matrix(2.902e-17,0.464692,-0.464692,2.902e-17,550.041,190.566)">
                <path d="M345.751,242.011L360.626,271.761L330.876,271.761L345.751,242.011Z"/>
            </g>
            <g transform="matrix(0.699088,0,0,0.699088,252.286,164.432)">
                <path d="M193.001,352.741L193.001,339.447L185.45,339.447C184.702,339.447 184.094,338.839 184.094,338.091L184.094,305.886L175.232,305.886L175.232,348.276C175.232,350.74 177.232,352.741 179.696,352.741L193.001,352.741ZM195.834,339.447L195.834,352.741L305.482,352.741C307.946,352.741 309.946,350.74 309.946,348.276L309.946,303.22L305.404,305.546L301.084,307.551L301.084,338.091C301.084,338.839 300.476,339.447 299.728,339.447L195.834,339.447ZM175.232,303.886L184.094,303.886L184.094,273.002C184.094,272.254 184.702,271.646 185.45,271.646L255.274,271.646L255.274,263.448L179.696,263.448C177.232,263.448 175.232,265.448 175.232,267.913L175.232,303.886Z"/>
            </g>
            <g transform="matrix(0.403032,0,0,0.429841,265.802,228.288)">
                <path d="M303.284,353.42C303.284,350.439 300.703,348.019 297.524,348.019L245.044,348.019C241.865,348.019 239.284,350.439 239.284,353.42L239.284,446.618C239.284,449.599 241.865,452.019 245.044,452.019L297.524,452.019C300.703,452.019 303.284,449.599 303.284,446.618L303.284,353.42Z" style="fill:rgb(72,60,60);"/>
            </g>
            <g transform="matrix(0.464692,0,0,0.511161,259.918,209.328)">
                <rect x="224.618" y="338.019" width="46.667" height="68" style="fill:white;"/>
            </g>
            <g transform="matrix(0.336548,0,0,0.451354,292.084,231.263)">
                <path d="M254.951,417.519C254.951,415.955 253.248,414.686 251.151,414.686L242.418,414.686C240.32,414.686 238.618,415.955 238.618,417.519C238.618,419.083 240.32,420.352 242.418,420.352L251.151,420.352C253.248,420.352 254.951,419.083 254.951,417.519Z" style="fill:white;"/>
            </g>
            <g transform="matrix(0.322703,0,0,0.322703,296.294,273.081)">
                <circle cx="225.551" cy="330.686" r="1.8" style="fill:white;"/>
            </g>
            <g transform="matrix(0.464692,0,0,0.464692,259.499,225.918)">
                <path d="M256.751,331.286C256.751,331.175 256.661,331.086 256.551,331.086L241.151,331.086C241.041,331.086 240.951,331.175 240.951,331.286L240.951,331.686C240.951,331.796 241.041,331.886 241.151,331.886L256.551,331.886C256.661,331.886 256.751,331.796 256.751,331.686L256.751,331.286Z" style="fill:white;"/>
            </g>
            <g transform="matrix(0.26984,0,0,0.384265,304.737,253.645)">
                <path d="M250.834,343.136C250.834,342.86 250.515,342.636 250.122,342.636L231.046,342.636C230.653,342.636 230.334,342.86 230.334,343.136L230.334,344.136C230.334,344.412 230.653,344.636 231.046,344.636L250.122,344.636C250.515,344.636 250.834,344.412 250.834,344.136L250.834,343.136Z" style="fill:rgb(105,149,41);"/>
            </g>
            <g transform="matrix(0.804711,0,0,0.384265,181.538,256.153)">
                <path d="M250.834,343.136C250.834,342.86 250.727,342.636 250.596,342.636L230.573,342.636C230.441,342.636 230.334,342.86 230.334,343.136L230.334,344.136C230.334,344.412 230.441,344.636 230.573,344.636L250.596,344.636C250.727,344.636 250.834,344.412 250.834,344.136L250.834,343.136Z" style="fill:rgb(105,149,41);"/>
            </g>
            <g transform="matrix(0.668703,0,0,0.384265,212.865,258.662)">
                <path d="M250.834,343.136C250.834,342.86 250.706,342.636 250.547,342.636L230.622,342.636C230.463,342.636 230.334,342.86 230.334,343.136L230.334,344.136C230.334,344.412 230.463,344.636 230.622,344.636L250.547,344.636C250.706,344.636 250.834,344.412 250.834,344.136L250.834,343.136Z" style="fill:rgb(105,149,41);"/>
            </g>
            <g transform="matrix(0.668703,0,0,0.384265,212.865,278.731)">
                <path d="M250.834,343.136C250.834,342.86 250.706,342.636 250.547,342.636L230.622,342.636C230.463,342.636 230.334,342.86 230.334,343.136L230.334,344.136C230.334,344.412 230.463,344.636 230.622,344.636L250.547,344.636C250.706,344.636 250.834,344.412 250.834,344.136L250.834,343.136Z" style="fill:rgb(105,149,41);"/>
            </g>
            <g transform="matrix(0.559206,0,0,0.384265,238.086,261.171)">
                <path d="M250.834,343.136C250.834,342.86 250.68,342.636 250.491,342.636L230.678,342.636C230.488,342.636 230.334,342.86 230.334,343.136L230.334,344.136C230.334,344.412 230.488,344.636 230.678,344.636L250.491,344.636C250.68,344.636 250.834,344.412 250.834,344.136L250.834,343.136Z" style="fill:rgb(105,149,41);"/>
            </g>
            <g transform="matrix(0.804711,0,0,0.384265,181.538,266.188)">
                <path d="M250.834,343.136C250.834,342.86 250.727,342.636 250.596,342.636L230.573,342.636C230.441,342.636 230.334,342.86 230.334,343.136L230.334,344.136C230.334,344.412 230.441,344.636 230.573,344.636L250.596,344.636C250.727,344.636 250.834,344.412 250.834,344.136L250.834,343.136Z" style="fill:rgb(105,149,41);"/>
            </g>
            <g transform="matrix(0.337544,0,0,0.384265,289.142,268.697)">
                <path d="M250.834,343.136C250.834,342.86 250.579,342.636 250.265,342.636L230.904,342.636C230.589,342.636 230.334,342.86 230.334,343.136L230.334,344.136C230.334,344.412 230.589,344.636 230.904,344.636L250.265,344.636C250.579,344.636 250.834,344.412 250.834,344.136L250.834,343.136Z" style="fill:rgb(105,149,41);"/>
            </g>
            <g transform="matrix(0.559206,0,0,0.384265,238.086,276.223)">
                <path d="M250.834,343.136C250.834,342.86 250.68,342.636 250.491,342.636L230.678,342.636C230.488,342.636 230.334,342.86 230.334,343.136L230.334,344.136C230.334,344.412 230.488,344.636 230.678,344.636L250.491,344.636C250.68,344.636 250.834,344.412 250.834,344.136L250.834,343.136Z" style="fill:rgb(105,149,41);"/>
            </g>
            <g transform="matrix(0.588732,0,0,0.384265,231.285,271.205)">
                <path d="M250.834,343.136C250.834,342.86 250.688,342.636 250.508,342.636L230.661,342.636C230.481,342.636 230.334,342.86 230.334,343.136L230.334,344.136C230.334,344.412 230.481,344.636 230.661,344.636L250.508,344.636C250.688,344.636 250.834,344.412 250.834,344.136L250.834,343.136Z" style="fill:rgb(105,149,41);"/>
            </g>
            <g transform="matrix(0.332968,0,0,0.384265,290.196,281.24)">
                <path d="M250.834,343.136C250.834,342.86 250.576,342.636 250.257,342.636L230.911,342.636C230.593,342.636 230.334,342.86 230.334,343.136L230.334,344.136C230.334,344.412 230.593,344.636 230.911,344.636L250.257,344.636C250.576,344.636 250.834,344.412 250.834,344.136L250.834,343.136Z" style="fill:rgb(105,149,41);"/>
            </g>
            <g transform="matrix(0.363041,0,0,0.363041,298.703,266.154)">
                <circle cx="339.284" cy="386.686" r="5.333" style="fill:white;"/>
            </g>
            <g transform="matrix(0.212379,0,0,0.212379,349.82,324.413)">
                <circle cx="339.284" cy="386.686" r="5.333" style="fill:rgb(152,203,79);"/>
            </g>
            <g transform="matrix(-0.791251,0,0,-0.791251,845.406,574.535)">
                <path d="M494.501,250.252C494.501,250.252 476.501,272.302 476.501,281.752C476.501,291.687 484.567,299.752 494.501,299.752C504.436,299.752 512.501,291.687 512.501,281.752C512.501,272.302 494.501,250.252 494.501,250.252Z" style="fill:white;stroke:rgb(105,149,41);stroke-width:3.42px;"/>
            </g>
            <g transform="matrix(0.540995,0,0,0.620828,187.286,190.757)">
                <path d="M504.001,289.377C504.001,288.481 503.165,287.752 502.136,287.752L484.366,287.752C483.337,287.752 482.501,288.481 482.501,289.377L482.501,292.627C482.501,293.524 483.337,294.252 484.366,294.252L502.136,294.252C503.165,294.252 504.001,293.524 504.001,292.627L504.001,289.377Z" style="fill:white;stroke:rgb(105,149,41);stroke-width:4.65px;"/>
            </g>
            <g transform="matrix(0.844001,0,0,0.914884,36.7025,100.646)">
                <ellipse cx="494.584" cy="303.402" rx="4.5" ry="3.2" style="fill:white;stroke:rgb(105,149,41);stroke-width:3.08px;"/>
            </g>
            <g transform="matrix(0.540995,0,0,0.620828,187.286,194.713)">
                <path d="M504.001,289.377C504.001,288.481 503.165,287.752 502.136,287.752L484.366,287.752C483.337,287.752 482.501,288.481 482.501,289.377L482.501,292.627C482.501,293.524 483.337,294.252 484.366,294.252L502.136,294.252C503.165,294.252 504.001,293.524 504.001,292.627L504.001,289.377Z" style="fill:white;stroke:rgb(105,149,41);stroke-width:4.65px;"/>
            </g>
            <g transform="matrix(0.340664,0,0,0.340664,443.467,342.465)">
                <path d="M32,21.54C26.264,21.545 21.545,26.264 21.54,32C22.11,45.88 41.89,45.88 42.46,32C42.455,26.264 37.736,21.545 32,21.54ZM32,39.46C27.908,39.46 24.54,36.092 24.54,32C24.89,22.12 39.12,22.12 39.46,32C39.46,36.092 36.092,39.46 32,39.46Z" style="fill:rgb(51,204,177);fill-rule:nonzero;"/>
            </g>
            <g transform="matrix(0.340664,0,0,0.340664,443.467,342.465)">
                <path d="M53.94,26.57L50.72,26.57C50.326,25.178 49.772,23.835 49.07,22.57L51.35,20.29C51.633,20.01 51.793,19.628 51.793,19.23C51.793,18.832 51.633,18.45 51.35,18.17L45.79,12.61C45.51,12.327 45.128,12.167 44.73,12.167C44.332,12.167 43.95,12.327 43.67,12.61L41.39,14.89C40.125,14.188 38.782,13.634 37.39,13.24L37.39,10.06C37.39,9.237 36.713,8.56 35.89,8.56L28.07,8.56C27.247,8.56 26.57,9.237 26.57,10.06L26.57,13.28C25.178,13.674 23.835,14.228 22.57,14.93L20.29,12.65C20.01,12.367 19.628,12.207 19.23,12.207C18.832,12.207 18.45,12.367 18.17,12.65L12.61,18.21C12.327,18.49 12.167,18.872 12.167,19.27C12.167,19.668 12.327,20.05 12.61,20.33L14.89,22.61C14.188,23.875 13.634,25.218 13.24,26.61L10.06,26.61C9.237,26.61 8.56,27.287 8.56,28.11L8.56,35.97C8.56,36.793 9.237,37.47 10.06,37.47L13.28,37.47C13.674,38.862 14.228,40.205 14.93,41.47L12.65,43.75C12.367,44.03 12.207,44.412 12.207,44.81C12.207,45.208 12.367,45.59 12.65,45.87L18.21,51.43C18.49,51.713 18.872,51.873 19.27,51.873C19.668,51.873 20.05,51.713 20.33,51.43L22.61,49.15C23.875,49.852 25.218,50.406 26.61,50.8L26.61,54.02C26.61,54.843 27.287,55.52 28.11,55.52L35.97,55.52C36.793,55.52 37.47,54.843 37.47,54.02L37.47,50.72C38.862,50.326 40.205,49.772 41.47,49.07L43.75,51.35C44.03,51.633 44.412,51.793 44.81,51.793C45.208,51.793 45.59,51.633 45.87,51.35L51.43,45.79C51.713,45.51 51.873,45.128 51.873,44.73C51.873,44.332 51.713,43.95 51.43,43.67L49.15,41.39C49.852,40.125 50.406,38.782 50.8,37.39L54.02,37.39C54.843,37.39 55.52,36.713 55.52,35.89L55.52,28.07C55.52,28.069 55.52,28.069 55.52,28.068C55.52,27.245 54.843,26.568 54.02,26.568C53.993,26.568 53.967,26.569 53.94,26.57ZM52.44,34.43L49.43,34.43C48.785,34.49 48.247,34.959 48.1,35.59C47.663,37.525 46.891,39.37 45.82,41.04C45.67,41.412 45.67,41.828 45.82,42.2C46.54,43.097 47.329,43.936 48.18,44.71L44.74,48.15L42.74,46.15C42.239,45.648 41.452,45.556 40.85,45.93C39.254,46.96 37.486,47.695 35.63,48.1C34.941,48.262 34.45,48.882 34.45,49.59L34.45,52.44L29.57,52.44L29.57,49.59C29.568,48.986 29.211,48.437 28.66,48.19C26.712,47.765 24.853,47 23.17,45.93C22.568,45.556 21.781,45.648 21.28,46.15L19.28,48.15L15.84,44.71L17.84,42.71C18.339,42.208 18.43,41.423 18.06,40.82C16.99,39.137 16.225,37.278 15.8,35.33C15.559,34.774 15.006,34.414 14.4,34.42L11.56,34.42L11.56,29.57C12.694,29.613 13.83,29.58 14.96,29.47C15.425,29.291 15.773,28.894 15.89,28.41C16.302,26.549 17.04,24.775 18.07,23.17C18.44,22.567 18.349,21.782 17.85,21.28L15.85,19.28L19.29,15.84L21.29,17.84C21.792,18.325 22.563,18.412 23.16,18.05C24.843,16.98 26.702,16.215 28.65,15.79C29.201,15.543 29.558,14.994 29.56,14.39L29.56,11.56L34.42,11.56L34.42,14.41C34.422,15.014 34.779,15.563 35.33,15.81C37.278,16.235 39.137,17 40.82,18.07C41.417,18.432 42.188,18.345 42.69,17.86L44.69,15.86L48.13,19.3C47.282,20.076 46.493,20.916 45.77,21.81C45.62,22.182 45.62,22.598 45.77,22.97C46.841,24.64 47.613,26.485 48.05,28.42C48.212,29.097 48.814,29.583 49.51,29.6L52.39,29.6L52.44,34.43Z" style="fill:rgb(152,203,79);fill-rule:nonzero;"/>
            </g>
            <g transform="matrix(0.340664,0,0,0.340664,443.467,342.465)">
                <path d="M53.94,26.57L50.72,26.57C50.326,25.178 49.772,23.835 49.07,22.57L51.35,20.29C51.633,20.01 51.793,19.628 51.793,19.23C51.793,18.832 51.633,18.45 51.35,18.17L45.79,12.61C45.51,12.327 45.128,12.167 44.73,12.167C44.332,12.167 43.95,12.327 43.67,12.61L41.39,14.89C40.125,14.188 38.782,13.634 37.39,13.24L37.39,10.06C37.39,9.237 36.713,8.56 35.89,8.56L28.07,8.56C27.247,8.56 26.57,9.237 26.57,10.06L26.57,13.28C25.178,13.674 23.835,14.228 22.57,14.93L20.29,12.65C20.01,12.367 19.628,12.207 19.23,12.207C18.832,12.207 18.45,12.367 18.17,12.65L12.61,18.21C12.327,18.49 12.167,18.872 12.167,19.27C12.167,19.668 12.327,20.05 12.61,20.33L14.89,22.61C14.188,23.875 13.634,25.218 13.24,26.61L10.06,26.61C9.237,26.61 8.56,27.287 8.56,28.11L8.56,35.97C8.56,36.793 9.237,37.47 10.06,37.47L13.28,37.47C13.674,38.862 14.228,40.205 14.93,41.47L12.65,43.75C12.367,44.03 12.207,44.412 12.207,44.81C12.207,45.208 12.367,45.59 12.65,45.87L18.21,51.43C18.49,51.713 18.872,51.873 19.27,51.873C19.668,51.873 20.05,51.713 20.33,51.43L22.61,49.15C23.875,49.852 25.218,50.406 26.61,50.8L26.61,54.02C26.61,54.843 27.287,55.52 28.11,55.52L35.97,55.52C36.793,55.52 37.47,54.843 37.47,54.02L37.47,50.72C38.862,50.326 40.205,49.772 41.47,49.07L43.75,51.35C44.03,51.633 44.412,51.793 44.81,51.793C45.208,51.793 45.59,51.633 45.87,51.35L51.43,45.79C51.713,45.51 51.873,45.128 51.873,44.73C51.873,44.332 51.713,43.95 51.43,43.67L49.15,41.39C49.852,40.125 50.406,38.782 50.8,37.39L54.02,37.39C54.843,37.39 55.52,36.713 55.52,35.89L55.52,28.07C55.52,28.069 55.52,28.069 55.52,28.068C55.52,27.245 54.843,26.568 54.02,26.568C53.993,26.568 53.967,26.569 53.94,26.57ZM52.44,34.43L49.43,34.43C48.785,34.49 48.247,34.959 48.1,35.59C47.663,37.525 46.891,39.37 45.82,41.04C45.67,41.412 45.67,41.828 45.82,42.2C46.54,43.097 47.329,43.936 48.18,44.71L44.74,48.15L42.74,46.15C42.239,45.648 41.452,45.556 40.85,45.93C39.254,46.96 37.486,47.695 35.63,48.1C34.941,48.262 34.45,48.882 34.45,49.59L34.45,52.44L29.57,52.44L29.57,49.59C29.568,48.986 29.211,48.437 28.66,48.19C26.712,47.765 24.853,47 23.17,45.93C22.568,45.556 21.781,45.648 21.28,46.15L19.28,48.15L15.84,44.71L17.84,42.71C18.339,42.208 18.43,41.423 18.06,40.82C16.99,39.137 16.225,37.278 15.8,35.33C15.559,34.774 15.006,34.414 14.4,34.42L11.56,34.42L11.56,29.57C12.694,29.613 13.83,29.58 14.96,29.47C15.425,29.291 15.773,28.894 15.89,28.41C16.302,26.549 17.04,24.775 18.07,23.17C18.44,22.567 18.349,21.782 17.85,21.28L15.85,19.28L19.29,15.84L21.29,17.84C21.792,18.325 22.563,18.412 23.16,18.05C24.843,16.98 26.702,16.215 28.65,15.79C29.201,15.543 29.558,14.994 29.56,14.39L29.56,11.56L34.42,11.56L34.42,14.41C34.422,15.014 34.779,15.563 35.33,15.81C37.278,16.235 39.137,17 40.82,18.07C41.417,18.432 42.188,18.345 42.69,17.86L44.69,15.86L48.13,19.3C47.282,20.076 46.493,20.916 45.77,21.81C45.62,22.182 45.62,22.598 45.77,22.97C46.841,24.64 47.613,26.485 48.05,28.42C48.212,29.097 48.814,29.583 49.51,29.6L52.39,29.6L52.44,34.43Z" style="fill:rgb(3,157,217);fill-rule:nonzero;"/>
            </g>
            <g transform="matrix(0.651519,0,0,0.651519,97.0353,93.4531)">
                <path d="M474.867,424.422L474.867,428.587C474.867,429.907 473.796,430.979 472.476,430.979L468.423,430.979C468.752,430.396 468.925,429.739 468.925,429.071C468.925,426.91 467.147,425.155 464.957,425.155C462.767,425.155 460.989,426.91 460.989,429.071C460.989,429.739 461.163,430.396 461.492,430.979L456.861,430.979C455.541,430.979 454.47,429.907 454.47,428.587L454.47,413.441C454.47,412.121 455.541,411.049 456.861,411.049L472.476,411.049C473.796,411.049 474.867,412.121 474.867,413.441L474.867,417.062C475.331,416.873 475.828,416.774 476.332,416.774C478.494,416.774 480.249,418.552 480.249,420.742C480.249,422.932 478.494,424.71 476.332,424.71C475.828,424.71 475.331,424.612 474.867,424.422Z" style="fill:white;stroke:rgb(105,149,41);stroke-width:2.77px;"/>
            </g>
            <g transform="matrix(3.61665e-17,-0.651519,0.651519,3.61665e-17,126.139,690.468)">
                <path d="M474.867,424.422L474.867,428.587C474.867,429.907 473.796,430.979 472.476,430.979L468.423,430.979C468.752,430.396 468.925,429.739 468.925,429.071C468.925,426.91 467.147,425.155 464.957,425.155C462.767,425.155 460.989,426.91 460.989,429.071C460.989,429.739 461.163,430.396 461.492,430.979L456.861,430.979C455.541,430.979 454.47,429.907 454.47,428.587L454.47,413.441C454.47,412.121 455.541,411.049 456.861,411.049L472.476,411.049C473.796,411.049 474.867,412.121 474.867,413.441L474.867,417.062C475.331,416.873 475.828,416.774 476.332,416.774C478.494,416.774 480.249,418.552 480.249,420.742C480.249,422.932 478.494,424.71 476.332,424.71C475.828,424.71 475.331,424.612 474.867,424.422Z" style="fill:white;stroke:rgb(105,149,41);stroke-width:2.77px;"/>
            </g>
            <g transform="matrix(-0.445798,0.475122,-0.475122,-0.445798,827.788,338.205)">
                <path d="M474.867,424.422L474.867,428.587C474.867,429.907 473.796,430.979 472.476,430.979L468.423,430.979C468.752,430.396 468.925,429.739 468.925,429.071C468.925,426.91 467.147,425.155 464.957,425.155C462.767,425.155 460.989,426.91 460.989,429.071C460.989,429.739 461.163,430.396 461.492,430.979L456.861,430.979C455.541,430.979 454.47,429.907 454.47,428.587L454.47,413.441C454.47,412.121 455.541,411.049 456.861,411.049L472.476,411.049C473.796,411.049 474.867,412.121 474.867,413.441L474.867,417.062C475.331,416.873 475.828,416.774 476.332,416.774C478.494,416.774 480.249,418.552 480.249,420.742C480.249,422.932 478.494,424.71 476.332,424.71C475.828,424.71 475.331,424.612 474.867,424.422Z" style="fill:white;stroke:rgb(105,149,41);stroke-width:2.77px;"/>
            </g>
            <g transform="matrix(-0.651519,0,0,-0.651519,723.667,664.162)">
                <path d="M474.867,424.422L474.867,428.587C474.867,429.907 473.796,430.979 472.476,430.979L468.423,430.979C468.752,430.396 468.925,429.739 468.925,429.071C468.925,426.91 467.147,425.155 464.957,425.155C462.767,425.155 460.989,426.91 460.989,429.071C460.989,429.739 461.163,430.396 461.492,430.979L456.861,430.979C455.541,430.979 454.47,429.907 454.47,428.587L454.47,413.441C454.47,412.121 455.541,411.049 456.861,411.049L472.476,411.049C473.796,411.049 474.867,412.121 474.867,413.441L474.867,417.062C475.331,416.873 475.828,416.774 476.332,416.774C478.494,416.774 480.249,418.552 480.249,420.742C480.249,422.932 478.494,424.71 476.332,424.71C475.828,424.71 475.331,424.612 474.867,424.422Z" style="fill:white;stroke:rgb(105,149,41);stroke-width:2.77px;"/>
            </g>
            <g transform="matrix(1,0,0,1,0,-18)">
                <g transform="matrix(0.130783,0,0,0.348484,363.58,411.526)">
                    <rect x="172.919" y="111.112" width="495" height="3" style="fill:rgb(51,204,177);"/>
                </g>
                <g transform="matrix(-5.71324e-19,0.024369,-0.348484,1.50204e-17,489.653,434.917)">
                    <rect x="172.919" y="111.112" width="495" height="3" style="fill:rgb(51,204,177);"/>
                </g>
                <g transform="matrix(-0.05818,5.0615e-18,-2.75927e-17,-0.348484,488.746,478.897)">
                    <rect x="172.919" y="111.112" width="495" height="3" style="fill:rgb(51,204,177);"/>
                </g>
            </g>
        </g>
    </g>
</svg>
