<?xml version="1.0" encoding="UTF-8" standalone="no"?>
<!DOCTYPE svg PUBLIC "-//W3C//DTD SVG 1.1//EN" "http://www.w3.org/Graphics/SVG/1.1/DTD/svg11.dtd">
<svg width="100%" height="100%" viewBox="0 0 77 71" version="1.1" xmlns="http://www.w3.org/2000/svg" xmlns:xlink="http://www.w3.org/1999/xlink" xml:space="preserve" xmlns:serif="http://www.serif.com/" style="fill-rule:evenodd;clip-rule:evenodd;stroke-linecap:round;stroke-linejoin:round;stroke-miterlimit:1.5;">
    <g transform="matrix(1,0,0,1,-593.32,-101.905)">
        <g transform="matrix(3.46218,0,0,3.46218,-2205.54,261.169)">
            <g>
                <g transform="matrix(0.189301,0,0,0.201247,734.142,-90.7424)">
                    <path d="M505.084,241.923C505.084,232.796 497.207,225.386 487.503,225.386L413.166,225.386C403.462,225.386 395.584,232.796 395.584,241.923L395.584,274.998C395.584,284.126 403.462,291.536 413.166,291.536L431.172,291.536L417.484,319.886L447.597,291.536L487.503,291.536C497.207,291.536 505.084,284.126 505.084,274.998L505.084,241.923Z" style="fill:white;stroke:rgb(173,170,170);stroke-width:6.31px;"/>
                </g>
            </g>
            <g transform="matrix(0.446252,0,0,0.446252,494.052,-203.93)">
                <g transform="matrix(0.648044,0,0,0.638726,252.882,105.562)">
                    <circle cx="719.274" cy="415.446" r="4.63" style="fill:rgb(173,170,170);"/>
                </g>
                <g transform="matrix(0.648044,0,0,0.638726,262.424,105.642)">
                    <circle cx="719.274" cy="415.446" r="4.63" style="fill:rgb(173,170,170);"/>
                </g>
                <g transform="matrix(0.648044,0,0,0.638726,272.966,105.562)">
                    <circle cx="719.274" cy="415.446" r="4.63" style="fill:rgb(173,170,170);"/>
                </g>
            </g>
        </g>
    </g>
</svg>
