<?xml version="1.0" encoding="UTF-8" standalone="no"?>
<!DOCTYPE svg PUBLIC "-//W3C//DTD SVG 1.1//EN" "http://www.w3.org/Graphics/SVG/1.1/DTD/svg11.dtd">
<svg width="100%" height="100%" viewBox="0 0 81 75" version="1.1" xmlns="http://www.w3.org/2000/svg" xmlns:xlink="http://www.w3.org/1999/xlink" xml:space="preserve" xmlns:serif="http://www.serif.com/" style="fill-rule:evenodd;clip-rule:evenodd;stroke-linejoin:round;stroke-miterlimit:2;">
    <g transform="matrix(1,0,0,1,-286.467,-101.143)">
        <g transform="matrix(0.896262,0,0,0.896262,29.7808,10.4045)">
            <g>
                <g transform="matrix(1.08,0,0,0.862419,251,-106.377)">
                    <path d="M101.8,288C101.8,286.755 100.994,285.746 100,285.746L50,285.746C49.006,285.746 48.2,286.755 48.2,288L48.2,332C48.2,333.245 49.006,334.254 50,334.254L100,334.254C100.994,334.254 101.8,333.245 101.8,332L101.8,288Z" style="fill:white;"/>
                </g>
                <g transform="matrix(2.67138,0,0,2.62384,-974.437,-375.286)">
                    <path d="M500.598,195.254L477.169,195.254L477.169,210.682C477.169,212.102 478.321,213.254 479.74,213.254L498.026,213.254C499.445,213.254 500.598,212.102 500.598,210.682L500.598,195.254ZM498.098,197.254L479.669,197.254L479.669,209.254C479.669,210.358 480.176,210.682 481.293,210.682L495.676,210.682C496.792,210.682 498.098,210.358 498.098,209.254L498.098,197.254Z" style="fill:rgb(173,170,173);"/>
                </g>
                <g transform="matrix(7.80051,0,0,4.99759,-5587.63,55.2834)">
                    <path d="M757.896,19.606C757.896,19.176 757.673,18.827 757.398,18.827L756.733,18.827C756.458,18.827 756.234,19.176 756.234,19.606L756.234,22.823C756.234,23.253 756.458,23.601 756.733,23.601L757.398,23.601C757.673,23.601 757.896,23.253 757.896,22.823L757.896,19.606Z" style="fill:rgb(191,191,191);"/>
                </g>
            </g>
            <g>
                <g transform="matrix(2.43633,0,0,2.43633,-746.063,-306.512)">
                    <path d="M442.154,167.473C442.224,167.41 442.329,167.41 442.398,167.473C443.863,168.785 458.047,181.486 460.435,183.625C460.489,183.673 460.508,183.75 460.482,183.818C460.456,183.885 460.391,183.93 460.319,183.93C456.391,183.93 428.394,183.93 424.28,183.93C424.2,183.93 424.129,183.881 424.1,183.806C424.072,183.731 424.092,183.647 424.152,183.594C426.64,181.365 440.696,168.778 442.154,167.473Z" style="fill:rgb(173,170,170);"/>
                </g>
                <g transform="matrix(4.16735,0,0,3.63178,-2866.47,78.1311)">
                    <path d="M767.381,8.81L774.521,15.886L760.241,15.886L767.381,8.81Z" style="fill:white;"/>
                </g>
                <g transform="matrix(5.75422,0,0,5.0366,-4042.81,65.4176)">
                    <path d="M765.569,9.799C765.569,9.465 765.362,9.193 765.107,9.193L764.71,9.193C764.455,9.193 764.248,9.465 764.248,9.799L764.248,12.945L765.569,12.945L765.569,9.799Z" style="fill:rgb(173,170,170);"/>
                </g>
            </g>
        </g>
    </g>
</svg>
