<?xml version="1.0" encoding="UTF-8" standalone="no"?>
<!DOCTYPE svg PUBLIC "-//W3C//DTD SVG 1.1//EN" "http://www.w3.org/Graphics/SVG/1.1/DTD/svg11.dtd">
<svg width="100%" height="100%" viewBox="0 0 51 76" version="1.1" xmlns="http://www.w3.org/2000/svg" xmlns:xlink="http://www.w3.org/1999/xlink" xml:space="preserve" xmlns:serif="http://www.serif.com/" style="fill-rule:evenodd;clip-rule:evenodd;stroke-linecap:round;stroke-linejoin:round;stroke-miterlimit:1.5;">
    <g transform="matrix(1,0,0,1,-402.215,-98.5257)">
        <g transform="matrix(3.46218,0,0,3.46218,-2219.45,261.169)">
            <g transform="matrix(-0.372882,0,0,-0.372882,948.97,65.4336)">
                <path d="M494.501,250.252C494.501,250.252 476.501,272.302 476.501,281.752C476.501,291.687 484.567,299.752 494.501,299.752C504.436,299.752 512.501,291.687 512.501,281.752C512.501,272.302 494.501,250.252 494.501,250.252Z" style="fill:white;stroke:rgb(173,170,170);stroke-width:3.42px;"/>
            </g>
            <g transform="matrix(0.254947,0,0,0.292569,638.826,-115.424)">
                <path d="M504.001,289.377C504.001,288.481 503.165,287.752 502.136,287.752L484.366,287.752C483.337,287.752 482.501,288.481 482.501,289.377L482.501,292.627C482.501,293.524 483.337,294.252 484.366,294.252L502.136,294.252C503.165,294.252 504.001,293.524 504.001,292.627L504.001,289.377Z" style="fill:white;stroke:rgb(173,170,170);stroke-width:4.65px;"/>
            </g>
            <g transform="matrix(0.397741,0,0,0.431145,567.863,-157.89)">
                <ellipse cx="494.584" cy="303.402" rx="4.5" ry="3.2" style="fill:white;stroke:rgb(173,170,170);stroke-width:3.08px;"/>
            </g>
            <g transform="matrix(0.254947,0,0,0.292569,638.826,-113.56)">
                <path d="M504.001,289.377C504.001,288.481 503.165,287.752 502.136,287.752L484.366,287.752C483.337,287.752 482.501,288.481 482.501,289.377L482.501,292.627C482.501,293.524 483.337,294.252 484.366,294.252L502.136,294.252C503.165,294.252 504.001,293.524 504.001,292.627L504.001,289.377Z" style="fill:white;stroke:rgb(173,170,170);stroke-width:4.65px;"/>
            </g>
            <g transform="matrix(1,0,0,1,-1,-1)">
                <g transform="matrix(0.158413,0,0,0.158413,760.514,-43.4412)">
                    <path d="M32,21.54C26.264,21.545 21.545,26.264 21.54,32C22.11,45.88 41.89,45.88 42.46,32C42.455,26.264 37.736,21.545 32,21.54ZM32,39.46C27.908,39.46 24.54,36.092 24.54,32C24.89,22.12 39.12,22.12 39.46,32C39.46,36.092 36.092,39.46 32,39.46Z" style="fill:rgb(173,170,170);fill-rule:nonzero;"/>
                </g>
                <g transform="matrix(0.158413,0,0,0.158413,760.514,-43.4412)">
                    <path d="M53.94,26.57L50.72,26.57C50.326,25.178 49.772,23.835 49.07,22.57L51.35,20.29C51.633,20.01 51.793,19.628 51.793,19.23C51.793,18.832 51.633,18.45 51.35,18.17L45.79,12.61C45.51,12.327 45.128,12.167 44.73,12.167C44.332,12.167 43.95,12.327 43.67,12.61L41.39,14.89C40.125,14.188 38.782,13.634 37.39,13.24L37.39,10.06C37.39,9.237 36.713,8.56 35.89,8.56L28.07,8.56C27.247,8.56 26.57,9.237 26.57,10.06L26.57,13.28C25.178,13.674 23.835,14.228 22.57,14.93L20.29,12.65C20.01,12.367 19.628,12.207 19.23,12.207C18.832,12.207 18.45,12.367 18.17,12.65L12.61,18.21C12.327,18.49 12.167,18.872 12.167,19.27C12.167,19.668 12.327,20.05 12.61,20.33L14.89,22.61C14.188,23.875 13.634,25.218 13.24,26.61L10.06,26.61C9.237,26.61 8.56,27.287 8.56,28.11L8.56,35.97C8.56,36.793 9.237,37.47 10.06,37.47L13.28,37.47C13.674,38.862 14.228,40.205 14.93,41.47L12.65,43.75C12.367,44.03 12.207,44.412 12.207,44.81C12.207,45.208 12.367,45.59 12.65,45.87L18.21,51.43C18.49,51.713 18.872,51.873 19.27,51.873C19.668,51.873 20.05,51.713 20.33,51.43L22.61,49.15C23.875,49.852 25.218,50.406 26.61,50.8L26.61,54.02C26.61,54.843 27.287,55.52 28.11,55.52L35.97,55.52C36.793,55.52 37.47,54.843 37.47,54.02L37.47,50.72C38.862,50.326 40.205,49.772 41.47,49.07L43.75,51.35C44.03,51.633 44.412,51.793 44.81,51.793C45.208,51.793 45.59,51.633 45.87,51.35L51.43,45.79C51.713,45.51 51.873,45.128 51.873,44.73C51.873,44.332 51.713,43.95 51.43,43.67L49.15,41.39C49.852,40.125 50.406,38.782 50.8,37.39L54.02,37.39C54.843,37.39 55.52,36.713 55.52,35.89L55.52,28.07C55.52,28.069 55.52,28.069 55.52,28.068C55.52,27.245 54.843,26.568 54.02,26.568C53.993,26.568 53.967,26.569 53.94,26.57ZM52.44,34.43L49.43,34.43C48.785,34.49 48.247,34.959 48.1,35.59C47.663,37.525 46.891,39.37 45.82,41.04C45.67,41.412 45.67,41.828 45.82,42.2C46.54,43.097 47.329,43.936 48.18,44.71L44.74,48.15L42.74,46.15C42.239,45.648 41.452,45.556 40.85,45.93C39.254,46.96 37.486,47.695 35.63,48.1C34.941,48.262 34.45,48.882 34.45,49.59L34.45,52.44L29.57,52.44L29.57,49.59C29.568,48.986 29.211,48.437 28.66,48.19C26.712,47.765 24.853,47 23.17,45.93C22.568,45.556 21.781,45.648 21.28,46.15L19.28,48.15L15.84,44.71L17.84,42.71C18.339,42.208 18.43,41.423 18.06,40.82C16.99,39.137 16.225,37.278 15.8,35.33C15.559,34.774 15.006,34.414 14.4,34.42L11.56,34.42L11.56,29.57C12.694,29.613 13.83,29.58 14.96,29.47C15.425,29.291 15.773,28.894 15.89,28.41C16.302,26.549 17.04,24.775 18.07,23.17C18.44,22.567 18.349,21.782 17.85,21.28L15.85,19.28L19.29,15.84L21.29,17.84C21.792,18.325 22.563,18.412 23.16,18.05C24.843,16.98 26.702,16.215 28.65,15.79C29.201,15.543 29.558,14.994 29.56,14.39L29.56,11.56L34.42,11.56L34.42,14.41C34.422,15.014 34.779,15.563 35.33,15.81C37.278,16.235 39.137,17 40.82,18.07C41.417,18.432 42.188,18.345 42.69,17.86L44.69,15.86L48.13,19.3C47.282,20.076 46.493,20.916 45.77,21.81C45.62,22.182 45.62,22.598 45.77,22.97C46.841,24.64 47.613,26.485 48.05,28.42C48.212,29.097 48.814,29.583 49.51,29.6L52.39,29.6L52.44,34.43Z" style="fill:rgb(152,203,79);fill-rule:nonzero;"/>
                </g>
                <g transform="matrix(0.158413,0,0,0.158413,760.514,-43.4412)">
                    <path d="M53.94,26.57L50.72,26.57C50.326,25.178 49.772,23.835 49.07,22.57L51.35,20.29C51.633,20.01 51.793,19.628 51.793,19.23C51.793,18.832 51.633,18.45 51.35,18.17L45.79,12.61C45.51,12.327 45.128,12.167 44.73,12.167C44.332,12.167 43.95,12.327 43.67,12.61L41.39,14.89C40.125,14.188 38.782,13.634 37.39,13.24L37.39,10.06C37.39,9.237 36.713,8.56 35.89,8.56L28.07,8.56C27.247,8.56 26.57,9.237 26.57,10.06L26.57,13.28C25.178,13.674 23.835,14.228 22.57,14.93L20.29,12.65C20.01,12.367 19.628,12.207 19.23,12.207C18.832,12.207 18.45,12.367 18.17,12.65L12.61,18.21C12.327,18.49 12.167,18.872 12.167,19.27C12.167,19.668 12.327,20.05 12.61,20.33L14.89,22.61C14.188,23.875 13.634,25.218 13.24,26.61L10.06,26.61C9.237,26.61 8.56,27.287 8.56,28.11L8.56,35.97C8.56,36.793 9.237,37.47 10.06,37.47L13.28,37.47C13.674,38.862 14.228,40.205 14.93,41.47L12.65,43.75C12.367,44.03 12.207,44.412 12.207,44.81C12.207,45.208 12.367,45.59 12.65,45.87L18.21,51.43C18.49,51.713 18.872,51.873 19.27,51.873C19.668,51.873 20.05,51.713 20.33,51.43L22.61,49.15C23.875,49.852 25.218,50.406 26.61,50.8L26.61,54.02C26.61,54.843 27.287,55.52 28.11,55.52L35.97,55.52C36.793,55.52 37.47,54.843 37.47,54.02L37.47,50.72C38.862,50.326 40.205,49.772 41.47,49.07L43.75,51.35C44.03,51.633 44.412,51.793 44.81,51.793C45.208,51.793 45.59,51.633 45.87,51.35L51.43,45.79C51.713,45.51 51.873,45.128 51.873,44.73C51.873,44.332 51.713,43.95 51.43,43.67L49.15,41.39C49.852,40.125 50.406,38.782 50.8,37.39L54.02,37.39C54.843,37.39 55.52,36.713 55.52,35.89L55.52,28.07C55.52,28.069 55.52,28.069 55.52,28.068C55.52,27.245 54.843,26.568 54.02,26.568C53.993,26.568 53.967,26.569 53.94,26.57ZM52.44,34.43L49.43,34.43C48.785,34.49 48.247,34.959 48.1,35.59C47.663,37.525 46.891,39.37 45.82,41.04C45.67,41.412 45.67,41.828 45.82,42.2C46.54,43.097 47.329,43.936 48.18,44.71L44.74,48.15L42.74,46.15C42.239,45.648 41.452,45.556 40.85,45.93C39.254,46.96 37.486,47.695 35.63,48.1C34.941,48.262 34.45,48.882 34.45,49.59L34.45,52.44L29.57,52.44L29.57,49.59C29.568,48.986 29.211,48.437 28.66,48.19C26.712,47.765 24.853,47 23.17,45.93C22.568,45.556 21.781,45.648 21.28,46.15L19.28,48.15L15.84,44.71L17.84,42.71C18.339,42.208 18.43,41.423 18.06,40.82C16.99,39.137 16.225,37.278 15.8,35.33C15.559,34.774 15.006,34.414 14.4,34.42L11.56,34.42L11.56,29.57C12.694,29.613 13.83,29.58 14.96,29.47C15.425,29.291 15.773,28.894 15.89,28.41C16.302,26.549 17.04,24.775 18.07,23.17C18.44,22.567 18.349,21.782 17.85,21.28L15.85,19.28L19.29,15.84L21.29,17.84C21.792,18.325 22.563,18.412 23.16,18.05C24.843,16.98 26.702,16.215 28.65,15.79C29.201,15.543 29.558,14.994 29.56,14.39L29.56,11.56L34.42,11.56L34.42,14.41C34.422,15.014 34.779,15.563 35.33,15.81C37.278,16.235 39.137,17 40.82,18.07C41.417,18.432 42.188,18.345 42.69,17.86L44.69,15.86L48.13,19.3C47.282,20.076 46.493,20.916 45.77,21.81C45.62,22.182 45.62,22.598 45.77,22.97C46.841,24.64 47.613,26.485 48.05,28.42C48.212,29.097 48.814,29.583 49.51,29.6L52.39,29.6L52.44,34.43Z" style="fill:rgb(173,170,170);fill-rule:nonzero;"/>
                </g>
            </g>
        </g>
    </g>
</svg>
